<svg xmlns="http://www.w3.org/2000/svg" xmlns:xlink="http://www.w3.org/1999/xlink" id="_ÎÓÈ_1" data-name="—ÎÓÈ_1" version="1.1" viewBox="0 0 3540 1180"><defs><style>.cls-1{mask:url(#mask-10)}.cls-2{clip-path:url(#clippath)}.cls-3{fill:none}.cls-10,.cls-11,.cls-12,.cls-13,.cls-14,.cls-15,.cls-16,.cls-17,.cls-18,.cls-19,.cls-20,.cls-21,.cls-22,.cls-23,.cls-24,.cls-25,.cls-26,.cls-3,.cls-4,.cls-5,.cls-6,.cls-7,.cls-8,.cls-9{stroke-width:0}.cls-27{mask:url(#mask)}.cls-4{fill:url(#_ÂÁ_Ï_ÌÌ_È_ËÂÌÚ_153)}.cls-5{fill:url(#_ÂÁ_Ï_ÌÌ_È_ËÂÌÚ_110)}.cls-6{fill:url(#_ÂÁ_Ï_ÌÌ_È_ËÂÌÚ_153-9)}.cls-7{fill:url(#_ÂÁ_Ï_ÌÌ_È_ËÂÌÚ_153-5)}.cls-8{fill:url(#_ÂÁ_Ï_ÌÌ_È_ËÂÌÚ_153-6)}.cls-9{fill:url(#_ÂÁ_Ï_ÌÌ_È_ËÂÌÚ_153-7)}.cls-10{fill:url(#_ÂÁ_Ï_ÌÌ_È_ËÂÌÚ_153-4)}.cls-11{fill:url(#_ÂÁ_Ï_ÌÌ_È_ËÂÌÚ_153-8)}.cls-12{fill:url(#_ÂÁ_Ï_ÌÌ_È_ËÂÌÚ_153-3)}.cls-13{fill:url(#_ÂÁ_Ï_ÌÌ_È_ËÂÌÚ_153-2)}.cls-14{fill:url(#_ÂÁ_Ï_ÌÌ_È_ËÂÌÚ_110-4)}.cls-15{fill:url(#_ÂÁ_Ï_ÌÌ_È_ËÂÌÚ_110-3)}.cls-16{fill:url(#_ÂÁ_Ï_ÌÌ_È_ËÂÌÚ_110-2)}.cls-17{fill:url(#_ÂÁ_Ï_ÌÌ_È_ËÂÌÚ_110-5)}.cls-18{fill:url(#_ÂÁ_Ï_ÌÌ_È_ËÂÌÚ_110-7)}.cls-19{fill:url(#_ÂÁ_Ï_ÌÌ_È_ËÂÌÚ_110-8)}.cls-20{fill:url(#_ÂÁ_Ï_ÌÌ_È_ËÂÌÚ_110-9)}.cls-21{fill:url(#_ÂÁ_Ï_ÌÌ_È_ËÂÌÚ_110-6)}.cls-22{fill:url(#_ÂÁ_Ï_ÌÌ_È_ËÂÌÚ_110-11)}.cls-23{fill:url(#_ÂÁ_Ï_ÌÌ_È_ËÂÌÚ_110-10)}.cls-24{fill:url(#_ÂÁ_Ï_ÌÌ_È_ËÂÌÚ_153-10)}.cls-25{fill:url(#_ÂÁ_Ï_ÌÌ_È_ËÂÌÚ_153-11)}.cls-26{fill:#fff}.cls-28{mask:url(#mask-3)}.cls-29{mask:url(#mask-2)}.cls-30{mask:url(#mask-5)}.cls-31{mask:url(#mask-4)}.cls-32{mask:url(#mask-1)}.cls-33{mask:url(#mask-7)}.cls-34{mask:url(#mask-6)}.cls-35{mask:url(#mask-8)}.cls-36{mask:url(#mask-9)}</style><clipPath id="clippath"><rect width="3540" height="1180" x="0" class="cls-3"/></clipPath><radialGradient id="_ÂÁ_Ï_ÌÌ_È_ËÂÌÚ_110" cx="304.6" cy="-2549.56" r="348.44" data-name="¡ÂÁ˚ÏˇÌÌ˚È „‡‰ËÂÌÚ 110" fx="304.6" fy="-2549.56" gradientTransform="translate(-615.3 -2222.93) rotate(90) scale(8.31 .32)" gradientUnits="userSpaceOnUse"><stop offset=".11" stop-color="#fff"/><stop offset=".12" stop-color="#f1f1f1"/><stop offset=".19" stop-color="#bfbfbf"/><stop offset=".26" stop-color="#929292"/><stop offset=".33" stop-color="#6a6a6a"/><stop offset=".41" stop-color="#494949"/><stop offset=".49" stop-color="#2e2e2e"/><stop offset=".58" stop-color="#191919"/><stop offset=".68" stop-color="#0b0b0b"/><stop offset=".8" stop-color="#020202"/><stop offset=".99" stop-color="#000"/></radialGradient><mask id="mask" width="5747.21" height="743.12" x="-2682.73" y="-65.2" maskUnits="userSpaceOnUse"><ellipse cx="190.88" cy="306.36" class="cls-5" rx="110.18" ry="2895.42" transform="translate(-136.57 458.23) rotate(-82.96)"/></mask><radialGradient id="_ÂÁ_Ï_ÌÌ_È_ËÂÌÚ_153" cx="304.6" cy="-2549.56" r="348.44" data-name="¡ÂÁ˚ÏˇÌÌ˚È „‡‰ËÂÌÚ 153" fx="304.6" fy="-2549.56" gradientTransform="translate(-615.3 -2222.93) rotate(90) scale(8.31 .32)" gradientUnits="userSpaceOnUse"><stop offset=".03" stop-color="#fff"/><stop offset=".13" stop-color="#cef7ff"/><stop offset=".24" stop-color="#a0f0ff"/><stop offset=".35" stop-color="#78eaff"/><stop offset=".47" stop-color="#57e4ff"/><stop offset=".59" stop-color="#3ee0ff"/><stop offset=".72" stop-color="#2cdeff"/><stop offset=".85" stop-color="#21dcff"/><stop offset="1" stop-color="#1edcff"/></radialGradient><radialGradient id="_ÂÁ_Ï_ÌÌ_È_ËÂÌÚ_110-2" cx="234.92" cy="24099.96" r="348.42" data-name="¡ÂÁ˚ÏˇÌÌ˚È „‡‰ËÂÌÚ 110" fx="234.92" fy="24099.96" gradientTransform="translate(-1731.73 -2642.72) scale(7.93 .15)" xlink:href="#_ÂÁ_Ï_ÌÌ_È_ËÂÌÚ_110"/><mask id="mask-1" width="5527.81" height="135.42" x="-2633.6" y="789.32" maskUnits="userSpaceOnUse"><ellipse cx="130.3" cy="857.02" class="cls-16" rx="2764.27" ry="50.59" transform="translate(-13.94 2.23) rotate(-.93)"/></mask><radialGradient id="_ÂÁ_Ï_ÌÌ_È_ËÂÌÚ_153-2" cx="234.92" cy="24099.96" r="348.42" data-name="¡ÂÁ˚ÏˇÌÌ˚È „‡‰ËÂÌÚ 153" fx="234.92" fy="24099.96" gradientTransform="translate(-1731.73 -2642.72) scale(7.93 .15)" xlink:href="#_ÂÁ_Ï_ÌÌ_È_ËÂÌÚ_153"/><radialGradient id="_ÂÁ_Ï_ÌÌ_È_ËÂÌÚ_110-3" cx="196.79" cy="9326.11" r="397.49" data-name="¡ÂÁ˚ÏˇÌÌ˚È „‡‰ËÂÌÚ 110" fx="196.79" fy="9326.11" gradientTransform="translate(-1447.39 -1593.74) scale(7.93 .28)" xlink:href="#_ÂÁ_Ï_ÌÌ_È_ËÂÌÚ_110"/><mask id="mask-2" width="6289.9" height="517.71" x="-3034.92" y="782.44" maskUnits="userSpaceOnUse"><ellipse cx="110.03" cy="1041.3" class="cls-15" rx="3153.58" ry="112.3" transform="translate(-76.74 10.99) rotate(-4.24)"/></mask><radialGradient id="_ÂÁ_Ï_ÌÌ_È_ËÂÌÚ_153-3" cx="196.79" cy="9326.11" r="397.49" data-name="¡ÂÁ˚ÏˇÌÌ˚È „‡‰ËÂÌÚ 153" fx="196.79" fy="9326.11" gradientTransform="translate(-1447.39 -1593.74) scale(7.93 .28)" xlink:href="#_ÂÁ_Ï_ÌÌ_È_ËÂÌÚ_153"/><radialGradient id="_ÂÁ_Ï_ÌÌ_È_ËÂÌÚ_110-4" cx="258.19" cy="10181.24" r="348.42" data-name="¡ÂÁ˚ÏˇÌÌ˚È „‡‰ËÂÌÚ 110" fx="258.19" fy="10181.24" gradientTransform="translate(2537.25 -1329.34) rotate(90) scale(7.93 .23)" xlink:href="#_ÂÁ_Ï_ÌÌ_È_ËÂÌÚ_110"/><mask id="mask-3" width="5528.11" height="177.42" x="-2618.57" y="630.23" maskUnits="userSpaceOnUse"><ellipse cx="145.49" cy="718.94" class="cls-14" rx="81.84" ry="2764.27" transform="translate(-575.19 855.53) rotate(-89.29)"/></mask><radialGradient id="_ÂÁ_Ï_ÌÌ_È_ËÂÌÚ_153-4" cx="258.19" cy="10181.24" r="348.42" data-name="¡ÂÁ˚ÏˇÌÌ˚È „‡‰ËÂÌÚ 153" fx="258.19" fy="10181.24" gradientTransform="translate(2537.25 -1329.34) rotate(90) scale(7.93 .23)" xlink:href="#_ÂÁ_Ï_ÌÌ_È_ËÂÌÚ_153"/><radialGradient id="_ÂÁ_Ï_ÌÌ_È_ËÂÌÚ_110-5" cx="435.84" cy="10916.32" r="348.43" data-name="¡ÂÁ˚ÏˇÌÌ˚È „‡‰ËÂÌÚ 110" fx="435.84" fy="10916.32" gradientTransform="translate(1844.97 -3799.19) rotate(90) scale(7.94 .15)" xlink:href="#_ÂÁ_Ï_ÌÌ_È_ËÂÌÚ_110"/><mask id="mask-4" width="5265.83" height="1701.45" x="-2371.87" y="-1182.25" maskUnits="userSpaceOnUse"><ellipse cx="261.05" cy="-331.52" class="cls-17" rx="50.55" ry="2766.47" transform="translate(496.41 18.7) rotate(-72.12)"/></mask><radialGradient id="_ÂÁ_Ï_ÌÌ_È_ËÂÌÚ_153-5" cx="435.84" cy="10916.32" r="348.43" data-name="¡ÂÁ˚ÏˇÌÌ˚È „‡‰ËÂÌÚ 153" fx="435.84" fy="10916.32" gradientTransform="translate(1844.97 -3799.19) rotate(90) scale(7.94 .15)" xlink:href="#_ÂÁ_Ï_ÌÌ_È_ËÂÌÚ_153"/><radialGradient id="_ÂÁ_Ï_ÌÌ_È_ËÂÌÚ_110-6" cx="365.98" cy="16110.39" r="348.4" data-name="¡ÂÁ˚ÏˇÌÌ˚È „‡‰ËÂÌÚ 110" fx="365.98" fy="16110.39" gradientTransform="translate(2552.72 -2811.63) rotate(90) scale(7.94 .15)" xlink:href="#_ÂÁ_Ï_ÌÌ_È_ËÂÌÚ_110"/><mask id="mask-5" width="5431.93" height="1042.78" x="-2502.38" y="-421.44" maskUnits="userSpaceOnUse"><ellipse cx="213.58" cy="99.95" class="cls-21" rx="50.58" ry="2765.09" transform="translate(75.32 290.98) rotate(-79.18)"/></mask><radialGradient id="_ÂÁ_Ï_ÌÌ_È_ËÂÌÚ_153-6" cx="365.98" cy="16110.39" r="348.4" data-name="¡ÂÁ˚ÏˇÌÌ˚È „‡‰ËÂÌÚ 153" fx="365.98" fy="16110.39" gradientTransform="translate(2552.72 -2811.63) rotate(90) scale(7.94 .15)" xlink:href="#_ÂÁ_Ï_ÌÌ_È_ËÂÌÚ_153"/><radialGradient id="_ÂÁ_Ï_ÌÌ_È_ËÂÌÚ_110-7" cx="279.55" cy="1100.24" r="348.45" data-name="¡ÂÁ˚ÏˇÌÌ˚È „‡‰ËÂÌÚ 110" fx="279.55" fy="1100.24" gradientTransform="translate(575.92 -1666.08) rotate(90) scale(7.93 .37)" xlink:href="#_ÂÁ_Ï_ÌÌ_È_ËÂÌÚ_110"/><mask id="mask-6" width="5519.2" height="415.93" x="-2595.75" y="344.09" maskUnits="userSpaceOnUse"><ellipse cx="163.85" cy="552.06" class="cls-18" rx="130.5" ry="2764.35" transform="translate(-396.87 683.25) rotate(-86.64)"/></mask><radialGradient id="_ÂÁ_Ï_ÌÌ_È_ËÂÌÚ_153-7" cx="279.55" cy="1100.24" r="348.45" data-name="¡ÂÁ˚ÏˇÌÌ˚È „‡‰ËÂÌÚ 153" fx="279.55" fy="1100.24" gradientTransform="translate(575.92 -1666.08) rotate(90) scale(7.93 .37)" xlink:href="#_ÂÁ_Ï_ÌÌ_È_ËÂÌÚ_153"/><radialGradient id="_ÂÁ_Ï_ÌÌ_È_ËÂÌÚ_110-8" cx="189.03" cy="44603.11" r="216.78" data-name="¡ÂÁ˚ÏˇÌÌ˚È „‡‰ËÂÌÚ 110" fx="189.03" fy="44603.11" gradientTransform="translate(-1756.06 -3238.99) scale(10.06 .09)" xlink:href="#_ÂÁ_Ï_ÌÌ_È_ËÂÌÚ_110"/><mask id="mask-7" width="4359.27" height="131.04" x="-2037.41" y="854.12" maskUnits="userSpaceOnUse"><ellipse cx="142.22" cy="919.64" class="cls-19" rx="2180.53" ry="20.21" transform="translate(-26.22 4.44) rotate(-1.64)"/></mask><radialGradient id="_ÂÁ_Ï_ÌÌ_È_ËÂÌÚ_153-8" cx="189.03" cy="44603.11" r="216.78" data-name="¡ÂÁ˚ÏˇÌÌ˚È „‡‰ËÂÌÚ 153" fx="189.03" fy="44603.11" gradientTransform="translate(-1756.06 -3238.99) scale(10.06 .09)" xlink:href="#_ÂÁ_Ï_ÌÌ_È_ËÂÌÚ_153"/><radialGradient id="_ÂÁ_Ï_ÌÌ_È_ËÂÌÚ_110-9" cx="256" cy="8057.72" r="216.8" data-name="¡ÂÁ˚ÏˇÌÌ˚È „‡‰ËÂÌÚ 110" fx="256" fy="8057.72" gradientTransform="translate(2192.46 -1440.87) rotate(90) scale(7.99 .25)" xlink:href="#_ÂÁ_Ï_ÌÌ_È_ËÂÌÚ_110"/><mask id="mask-8" width="3463.79" height="128.17" x="-1589.67" y="541.1" maskUnits="userSpaceOnUse"><ellipse cx="142.22" cy="605.19" class="cls-20" rx="55.16" ry="1732.2" transform="translate(-465.53 735.99) rotate(-88.92)"/></mask><radialGradient id="_ÂÁ_Ï_ÌÌ_È_ËÂÌÚ_153-9" cx="256" cy="8057.72" r="216.8" data-name="¡ÂÁ˚ÏˇÌÌ˚È „‡‰ËÂÌÚ 153" fx="256" fy="8057.72" gradientTransform="translate(2192.46 -1440.87) rotate(90) scale(7.99 .25)" xlink:href="#_ÂÁ_Ï_ÌÌ_È_ËÂÌÚ_153"/><radialGradient id="_ÂÁ_Ï_ÌÌ_È_ËÂÌÚ_110-10" cx="223.84" cy="6825.66" r="216.82" data-name="¡ÂÁ˚ÏˇÌÌ˚È „‡‰ËÂÌÚ 110" fx="223.84" fy="6825.66" gradientTransform="translate(1878.64 -2096.83) rotate(90) scale(11.16 .25)" xlink:href="#_ÂÁ_Ï_ÌÌ_È_ËÂÌÚ_110"/><mask id="mask-9" width="4822.54" height="405.04" x="-2269.05" y="200.98" maskUnits="userSpaceOnUse"><ellipse cx="142.22" cy="403.5" class="cls-23" rx="55.16" ry="2419.13" transform="translate(-271.42 512.76) rotate(-85.38)"/></mask><radialGradient id="_ÂÁ_Ï_ÌÌ_È_ËÂÌÚ_153-10" cx="223.84" cy="6825.66" r="216.82" data-name="¡ÂÁ˚ÏˇÌÌ˚È „‡‰ËÂÌÚ 153" fx="223.84" fy="6825.66" gradientTransform="translate(1878.64 -2096.83) rotate(90) scale(11.16 .25)" xlink:href="#_ÂÁ_Ï_ÌÌ_È_ËÂÌÚ_153"/><radialGradient id="_ÂÁ_Ï_ÌÌ_È_ËÂÌÚ_110-11" cx="258.7" cy="18080.18" r="216.78" data-name="¡ÂÁ˚ÏˇÌÌ˚È „‡‰ËÂÌÚ 110" fx="258.7" fy="18080.18" gradientTransform="translate(2893.07 -2728.57) rotate(90) scale(11.16 .15)" xlink:href="#_ÂÁ_Ï_ÌÌ_È_ËÂÌÚ_110"/><mask id="mask-10" width="4776.14" height="780.53" x="-2226.95" y="-224.66" maskUnits="userSpaceOnUse"><ellipse cx="161.12" cy="165.6" class="cls-22" rx="32.75" ry="2419.52" transform="translate(-28.22 298.01) rotate(-80.75)"/></mask><radialGradient id="_ÂÁ_Ï_ÌÌ_È_ËÂÌÚ_153-11" cx="258.7" cy="18080.18" r="216.78" data-name="¡ÂÁ˚ÏˇÌÌ˚È „‡‰ËÂÌÚ 153" fx="258.7" fy="18080.18" gradientTransform="translate(2893.07 -2728.57) rotate(90) scale(11.16 .15)" xlink:href="#_ÂÁ_Ï_ÌÌ_È_ËÂÌÚ_153"/></defs><g class="cls-2"><g><g><g class="cls-27"><ellipse cx="190.88" cy="306.36" class="cls-4" rx="110.18" ry="2895.42" transform="translate(-136.57 458.23) rotate(-82.96)"/></g><g class="cls-32"><ellipse cx="130.3" cy="857.02" class="cls-13" rx="2764.27" ry="50.59" transform="translate(-13.94 2.23) rotate(-.93)"/></g><g class="cls-29"><ellipse cx="110.03" cy="1041.3" class="cls-12" rx="3153.58" ry="112.3" transform="translate(-76.74 10.99) rotate(-4.24)"/></g><g class="cls-28"><ellipse cx="145.49" cy="718.94" class="cls-10" rx="81.84" ry="2764.27" transform="translate(-575.19 855.53) rotate(-89.29)"/></g><g class="cls-31"><ellipse cx="261.05" cy="-331.52" class="cls-7" rx="50.55" ry="2766.47" transform="translate(496.41 18.7) rotate(-72.12)"/></g><g class="cls-30"><ellipse cx="213.58" cy="99.95" class="cls-8" rx="50.58" ry="2765.09" transform="translate(75.32 290.98) rotate(-79.18)"/></g><g class="cls-34"><ellipse cx="163.85" cy="552.06" class="cls-9" rx="130.5" ry="2764.35" transform="translate(-396.87 683.25) rotate(-86.64)"/></g><g class="cls-33"><ellipse cx="142.22" cy="919.64" class="cls-11" rx="2180.53" ry="20.21" transform="translate(-26.22 4.44) rotate(-1.64)"/></g><g class="cls-35"><ellipse cx="142.22" cy="605.19" class="cls-6" rx="55.16" ry="1732.2" transform="translate(-465.53 735.99) rotate(-88.92)"/></g><g class="cls-36"><ellipse cx="142.22" cy="403.5" class="cls-24" rx="55.16" ry="2419.13" transform="translate(-271.42 512.76) rotate(-85.38)"/></g><g class="cls-1"><ellipse cx="161.12" cy="165.6" class="cls-25" rx="32.75" ry="2419.52" transform="translate(-28.22 298.01) rotate(-80.75)"/></g></g><polygon points="-538.6 1084.78 3098.84 818.77 -537.24 1102.8 -538.6 1084.78 -538.6 1084.78" class="cls-26"/><path d="M-767.8,942.96l3662-130.94c-2.56-4.7-3669.82,145.56-3662,130.94h0Z" class="cls-26"/><path d="M-1307.08,884.83l4372.23-118.58c-4.98-9.11-4388.16,147.24-4372.23,118.58h0Z" class="cls-26"/><path d="M-1211.92,702.51l3492.73,39.01c-9.59-9.17-3506.58-11.17-3492.73-39.01h0Z" class="cls-26"/><path d="M-669.58,584.51l2818.64,95.21c-1.68-4.84-2827.83-81.18-2818.64-95.21h0Z" class="cls-26"/><polygon points="-1560.74 459.56 3120.29 704.44 -1561.74 479.62 -1560.74 459.56 -1560.74 459.56" class="cls-26"/><polygon points="-638.43 198.86 2700.55 605.19 -639.63 208.83 -638.43 198.86 -638.43 198.86" class="cls-26"/><polygon points="-658.59 -163.44 2870.39 596.71 -662.36 -145.76 -658.59 -163.44 -658.59 -163.44" class="cls-26"/><polygon points="-162.76 -292.31 2633.14 506.67 -165.51 -282.65 -162.76 -292.31 -162.76 -292.31" class="cls-26"/><polygon points="1010.09 -98.28 2237.91 306.36 1008.53 -93.51 1010.09 -98.28 1010.09 -98.28" class="cls-26"/></g></g></svg>